<mxfile host="app.diagrams.net" modified="2023-08-09T11:03:08.669Z" agent="Mozilla/5.0 (Windows NT 10.0; Win64; x64; rv:109.0) Gecko/20100101 Firefox/115.0" version="21.6.7" etag="iGSUhnqtMoZ4HQbEwWfT" type="github">
  <diagram name="Page-1" id="z9sCQ5e4fQZ6t9JVcT7k">
    <mxGraphModel>
      <root>
        <mxCell id="0" />
        <mxCell id="1" parent="0" />
      </root>
    </mxGraphModel>
  </diagram>
</mxfile>
